<?xml version="1.0" encoding="UTF-8" standalone="no"?>
<!-- Created with Inkscape (http://www.inkscape.org/) -->

<svg
   xmlns:dc="http://purl.org/dc/elements/1.1/"
   xmlns:cc="http://creativecommons.org/ns#"
   xmlns:rdf="http://www.w3.org/1999/02/22-rdf-syntax-ns#"
   xmlns:svg="http://www.w3.org/2000/svg"
   xmlns="http://www.w3.org/2000/svg"
   xmlns:sodipodi="http://sodipodi.sourceforge.net/DTD/sodipodi-0.dtd"
   xmlns:inkscape="http://www.inkscape.org/namespaces/inkscape"
   width="210mm"
   height="297mm"
   viewBox="0 0 210 297"
   version="1.1"
   id="svg8"
   inkscape:version="0.92.3 (2405546, 2018-03-11)"
   sodipodi:docname="spikes_black.svg">
  <defs
     id="defs2" />
  <sodipodi:namedview
     id="base"
     pagecolor="#ffffff"
     bordercolor="#666666"
     borderopacity="1.0"
     inkscape:pageopacity="0.0"
     inkscape:pageshadow="2"
     inkscape:zoom="0.49497475"
     inkscape:cx="-533.07294"
     inkscape:cy="763.0191"
     inkscape:document-units="mm"
     inkscape:current-layer="layer1"
     showgrid="false"
     inkscape:window-width="1920"
     inkscape:window-height="924"
     inkscape:window-x="0"
     inkscape:window-y="0"
     inkscape:window-maximized="1" />
  <metadata
     id="metadata5">
    <rdf:RDF>
      <cc:Work
         rdf:about="">
        <dc:format>image/svg+xml</dc:format>
        <dc:type
           rdf:resource="http://purl.org/dc/dcmitype/StillImage" />
        <dc:title></dc:title>
      </cc:Work>
    </rdf:RDF>
  </metadata>
  <g
     inkscape:label="Ebene 1"
     inkscape:groupmode="layer"
     id="layer1">
    <path
       style="fill:#cccccc;fill-opacity:1;stroke:#7b7b7b;stroke-width:2.33920622;stroke-linejoin:round;stroke-miterlimit:4;stroke-dasharray:none;stroke-opacity:1"
       d="m -329.27468,97.638561 6.03493,36.119819 4.59373,-36.119819 5.58454,35.759519 6.84556,-35.759519 5.76469,35.759519 7.11579,-35.759519 4.41359,35.939669 7.30795,-35.939669 v 47.661379 h -47.66078 z"
       id="rect815"
       inkscape:connector-curvature="0"
       sodipodi:nodetypes="cccccccccccc"
       inkscape:export-xdpi="25.399982"
       inkscape:export-ydpi="25.399982" />
    <path
       style="fill:#ff00ff;stroke:#ff00ff;stroke-width:0.965;stroke-linecap:butt;stroke-linejoin:round;stroke-opacity:1;stroke-miterlimit:4;stroke-dasharray:none"
       d="m -328.46131,109.7128 -0.56695,16.91443 2.07886,5.38616 1.79538,-4.06324 4.44122,2.26785 1.7954,-2.74032 1.22841,2.17336 3.4018,-1.22842 4.63021,0.94494 2.36233,-5.29167 2.07889,-0.0945 3.59076,4.91369 2.26785,1.6064 2.17337,-0.75596 2.55135,-4.34672 3.1183,2.07887 1.32292,0.56696 1.51191,2.83482 2.64583,-1.6064 3.49628,0.28349 1.51188,-22.77307 -2.9293,2.55134 -3.87424,19.37128 -1.8899,-2.26786 -3.21281,-23.24553 -2.55132,5.95312 -4.44122,20.12723 -1.88989,-1.79538 -4.06323,-25.70238 -6.14212,26.17485 -2.36236,-0.28348 -3.40177,-24.00149 -1.88989,2.74032 -2.74032,21.82813 -2.36236,-1.41741 z"
       id="path816"
       inkscape:connector-curvature="0"
       inkscape:export-xdpi="25.399982"
       inkscape:export-ydpi="25.399982" />
    <path
       style="fill:none;fill-opacity:1;stroke:#7b7b7b;stroke-width:2.33920622;stroke-linejoin:round;stroke-miterlimit:4;stroke-dasharray:none;stroke-opacity:1"
       d="m -329.27468,97.638561 6.03493,36.119819 4.59373,-36.119819 5.58454,35.759519 6.84556,-35.759519 5.76469,35.759519 7.1158,-35.759519 4.41358,35.939669 7.30795,-35.939669 v 47.661379 h -47.66078 z"
       id="rect815-9"
       inkscape:connector-curvature="0"
       sodipodi:nodetypes="cccccccccccc"
       inkscape:export-xdpi="25.399982"
       inkscape:export-ydpi="25.399982" />
    <path
       style="fill:#ff00ff;stroke:none;stroke-width:0.26458332px;stroke-linecap:butt;stroke-linejoin:miter;stroke-opacity:1"
       d="m -320.4293,133.14732 c 0,0 -1.15316,2.17981 -0.94496,3.30729 0.14299,0.77436 0.63027,1.91173 1.41742,1.88988 0.68114,-0.0189 1.08039,-1.02159 1.13393,-1.70089 0.10078,-1.27859 -1.60639,-3.49628 -1.60639,-3.49628 z"
       id="path833"
       inkscape:connector-curvature="0"
       sodipodi:nodetypes="caaac"
       inkscape:export-xdpi="25.399982"
       inkscape:export-ydpi="25.399982" />
    <path
       style="fill:#ff00ff;stroke:none;stroke-width:0.26458332px;stroke-linecap:butt;stroke-linejoin:miter;stroke-opacity:1"
       d="m -305.31027,127.95015 c 0,0 -0.67655,2.21253 -0.47247,3.30729 0.16539,0.88723 0.42072,2.33852 1.32292,2.36235 0.70758,0.0187 1.10209,-1.08828 1.13392,-1.79539 0.0652,-1.44949 -1.98437,-3.87425 -1.98437,-3.87425 z"
       id="path835"
       inkscape:connector-curvature="0"
       sodipodi:nodetypes="caaac"
       inkscape:export-xdpi="25.399982"
       inkscape:export-ydpi="25.399982" />
    <path
       style="fill:#ff00ff;stroke:none;stroke-width:0.23200612px;stroke-linecap:butt;stroke-linejoin:miter;stroke-opacity:1"
       d="m -292.5473,99.715778 c 0,0 -0.72944,1.784472 -0.55662,2.618382 0.14009,0.67585 0.35411,1.78273 1.24712,1.7192 0.70039,-0.0497 1.12083,-0.94773 1.17132,-1.50125 0.10342,-1.13465 -1.86182,-2.836332 -1.86182,-2.836332 z"
       id="path835-7"
       inkscape:connector-curvature="0"
       sodipodi:nodetypes="caaac"
       inkscape:export-xdpi="25.399982"
       inkscape:export-ydpi="25.399982" />
    <path
       style="fill:#ff00ff;stroke:none;stroke-width:0.14909387px;stroke-linecap:butt;stroke-linejoin:miter;stroke-opacity:1"
       d="m -308.33986,133.097 c 0,0 -1.00044,0.90516 -1.13509,1.58368 -0.0925,0.46602 -0.0964,1.22298 0.28263,1.41668 0.32796,0.1676 0.72575,-0.28304 0.89202,-0.64508 0.31297,-0.6814 -0.0396,-2.35528 -0.0396,-2.35528 z"
       id="path833-7"
       inkscape:connector-curvature="0"
       sodipodi:nodetypes="caaac"
       inkscape:export-xdpi="25.399982"
       inkscape:export-ydpi="25.399982" />
    <path
       style="fill:#000000;stroke-width:0.35714287"
       d="m -1240.0899,518.82664 0.011,-25.625 1.4459,3.66092 c 1.2179,3.08391 1.5908,3.69731 2.366,3.89187 0.5062,0.12703 1.1766,0.0733 1.49,-0.11932 0.3133,-0.19265 1.6876,-2.86185 3.0538,-5.93155 1.3663,-3.0697 2.5237,-5.54174 2.572,-5.49343 0.048,0.0483 0.7389,3.97021 1.5347,8.71533 0.7957,4.74512 1.5951,9.01752 1.7763,9.49422 0.8289,2.18009 3.7789,3.24662 5.9693,2.15808 2.2349,-1.11065 2.5324,-1.85488 3.3332,-8.3404 0.4002,-3.24107 0.8205,-6.49191 0.9341,-7.22408 l 0.2064,-1.33123 1.4259,0.72747 c 2.3023,1.17455 2.6974,0.93192 5.572,-3.42216 1.4265,-2.16072 2.7142,-3.96941 2.8615,-4.01932 0.1473,-0.0499 0.9793,1.2002 1.8488,2.77801 1.0873,1.97284 1.836,2.93272 2.3973,3.07359 0.5121,0.12855 2.6486,-0.46264 5.736,-1.58723 2.7059,-0.98564 5.0186,-1.68507 5.1394,-1.55428 0.1207,0.13079 0.7476,3.77351 1.3931,8.09494 0.6454,4.32143 1.4491,8.51157 1.7858,9.31144 0.6684,1.58757 2.3395,2.65389 4.1555,2.65151 1.4354,-0.002 3.2549,-1.21621 3.8741,-2.58551 0.2892,-0.63973 1.1653,-4.51894 1.9467,-8.62045 0.7814,-4.10152 1.4668,-7.49957 1.523,-7.55124 0.056,-0.0517 1.4313,0.16131 3.0557,0.47326 2.5937,0.49812 3.0171,0.50348 3.4766,0.044 0.2877,-0.28774 2.39,-4.69849 4.6717,-9.80167 2.2817,-5.10318 4.253,-9.3792 4.3805,-9.50225 0.1276,-0.12306 1.4374,-0.32599 2.9106,-0.45096 l 2.6786,-0.22721 3.1839,4.37953 c 1.7512,2.40874 4.3451,5.98666 5.7643,7.95095 l 2.5802,3.57143 1.5084,9.46428 c 0.8296,5.20536 1.739,9.91336 2.0209,10.46223 0.638,1.24197 2.4716,2.39182 3.8169,2.39358 1.4873,0.002 3.2113,-0.93208 3.913,-2.12011 0.3374,-0.57117 1.1078,-3.50079 1.7119,-6.51026 0.6042,-3.00948 1.2558,-5.56903 1.4481,-5.68789 0.1924,-0.11887 1.665,-0.66667 3.2725,-1.21734 1.6075,-0.55068 3.1037,-1.14041 3.3248,-1.31052 0.2212,-0.17012 2.3105,-3.59702 4.6429,-7.61534 2.3324,-4.01832 4.3655,-7.30983 4.518,-7.31448 0.1525,-0.005 2.4691,1.45853 5.1481,3.25149 2.6789,1.79296 5.7083,3.63033 6.732,4.08306 2.1965,0.9714 1.858,-0.27082 3.3992,12.47638 0.6303,5.21328 1.3492,9.7221 1.6396,10.28365 1.3051,2.52383 4.8702,3.10219 6.934,1.12491 1.2811,-1.22732 1.2411,-1.10361 2.8042,-8.69275 l 1.2799,-6.21482 2.1429,-1.3451 2.1428,-1.3451 5.7143,0.49251 c 3.1429,0.27088 5.7545,0.49874 5.8036,0.50635 0.049,0.008 0.089,11.9067 0.089,26.44241 v 26.42857 h -85.5357 -85.5358 z m 32.5767,3.49011 c 1.8964,-1.49172 3.0256,-5.29007 2.4073,-8.09733 -0.4684,-2.1264 -2.7697,-6.77768 -4.644,-9.38619 l -1.3938,-1.93984 -1.085,2.4184 c -2.7998,6.2402 -3.1913,10.34708 -1.3351,14.00405 1.7052,3.35929 4.0908,4.54249 6.0506,3.00091 z m 41.1099,-8.54355 c 1.4771,-1.27236 1.7641,-2.47043 1.5705,-6.55517 -0.1009,-2.12995 -0.2989,-3.98533 -0.4398,-4.12308 -0.3364,-0.32873 -2.934,2.60153 -3.7851,4.26987 -0.931,1.82481 -1.2002,3.92088 -0.6987,5.44029 0.6587,1.99607 1.7829,2.32064 3.3531,0.96809 z m 17.4593,-9.31184 c 1.0952,-0.86153 1.9168,-2.53152 2.4357,-4.95137 0.4807,-2.24156 -0.1428,-4.75964 -2.0484,-8.27263 -1.6807,-3.09821 -4.849,-7.51506 -5.2908,-7.37566 -0.6584,0.20775 -1.9722,6.71998 -1.9923,9.87566 -0.05,7.82462 3.5213,13.37838 6.8958,10.724 z"
       id="path4596"
       inkscape:connector-curvature="0"
       transform="scale(0.26458333)"
       inkscape:export-xdpi="25.399982"
       inkscape:export-ydpi="25.399982" />
  </g>
</svg>
