<?xml version="1.0" encoding="UTF-8" standalone="no"?>
<!-- Created with Inkscape (http://www.inkscape.org/) -->

<svg
   xmlns:dc="http://purl.org/dc/elements/1.1/"
   xmlns:cc="http://creativecommons.org/ns#"
   xmlns:rdf="http://www.w3.org/1999/02/22-rdf-syntax-ns#"
   xmlns:svg="http://www.w3.org/2000/svg"
   xmlns="http://www.w3.org/2000/svg"
   xmlns:sodipodi="http://sodipodi.sourceforge.net/DTD/sodipodi-0.dtd"
   xmlns:inkscape="http://www.inkscape.org/namespaces/inkscape"
   width="514.05029mm"
   height="195.22136mm"
   viewBox="0 0 514.05029 195.22136"
   version="1.1"
   id="svg8"
   inkscape:version="0.92.2 (5c3e80d, 2017-08-06)"
   sodipodi:docname="youwin.svg">
  <defs
     id="defs2" />
  <sodipodi:namedview
     id="base"
     pagecolor="#ffffff"
     bordercolor="#666666"
     borderopacity="1.0"
     inkscape:pageopacity="0.0"
     inkscape:pageshadow="2"
     inkscape:zoom="0.12374369"
     inkscape:cx="-604.48031"
     inkscape:cy="-168.17386"
     inkscape:document-units="mm"
     inkscape:current-layer="layer1"
     showgrid="false"
     inkscape:window-width="1920"
     inkscape:window-height="1018"
     inkscape:window-x="-8"
     inkscape:window-y="-8"
     inkscape:window-maximized="1"
     inkscape:snap-global="false" />
  <metadata
     id="metadata5">
    <rdf:RDF>
      <cc:Work
         rdf:about="">
        <dc:format>image/svg+xml</dc:format>
        <dc:type
           rdf:resource="http://purl.org/dc/dcmitype/StillImage" />
        <dc:title></dc:title>
      </cc:Work>
    </rdf:RDF>
  </metadata>
  <g
     inkscape:label="Ebene 1"
     inkscape:groupmode="layer"
     id="layer1"
     transform="translate(894.93028,-310.52594)">
    <path
       style="fill:#800080;fill-opacity:1;stroke:#430048;stroke-width:3.06500006;stroke-linecap:butt;stroke-linejoin:round;stroke-miterlimit:4;stroke-dasharray:none;stroke-opacity:1"
       d="m -865.95312,469.22331 -0.75594,-15.30805 13.98511,10.01638 -0.37796,-17.00895 12.4732,9.44942 -1.51191,-17.76489 17.95388,5.66965 -8.31548,21.54465 z"
       id="path1041-3"
       inkscape:connector-curvature="0" />
    <path
       style="fill:#00ffff;fill-opacity:1;stroke:#5b9393;stroke-width:6.22349119;stroke-miterlimit:4;stroke-dasharray:none;stroke-opacity:1"
       d="m -529.47036,392.12859 3.64685,-2.1475 c 1.06202,-0.62534 2.1443,1.16469 3.15622,0.46921 l 14.89898,-10.23966 c 1.01193,-0.69547 1.22521,-2.01882 0.49694,-2.97995 l -35.5401,-46.90618 c -0.72796,-0.96133 -3.48318,-1.60993 -3.15622,-0.46923 l 16.99431,59.29336 c 0.32693,1.14071 -1.559,3.60535 -0.49698,2.97995 z"
       id="rect815-6-7-4-6-7"
       inkscape:connector-curvature="0"
       sodipodi:nodetypes="sssssssss" />
    <path
       style="fill:#800080;fill-opacity:1;stroke:#430048;stroke-width:4.80000019;stroke-linejoin:round;stroke-miterlimit:4;stroke-dasharray:none;stroke-opacity:1"
       d="m -816.68655,362.07656 1.87089,29.31223 c 0.0598,0.9361 -0.75822,1.76906 -1.69317,1.69316 l -24.02043,9.58053 -11.67528,-17.03095 -12.03042,11.16785 -11.81468,-8.55121 c -0.75988,-0.54998 -17.00197,4.92245 -16.12573,4.58768 -6.46761,-28.95168 74.83104,-40.94353 75.48882,-30.75929 z"
       id="rect815-6-7-0-6"
       inkscape:connector-curvature="0"
       sodipodi:nodetypes="csscccscc" />
    <path
       style="fill:#d40000;fill-opacity:1;stroke:#690000;stroke-width:4.80000019;stroke-miterlimit:4;stroke-dasharray:none;stroke-opacity:1"
       d="m -827.70606,453.08109 0.23031,3.2128 c 0.0671,0.93561 1.69316,0.75515 1.69316,1.69317 v 13.81061 c 0,0.93801 -0.75518,1.68542 -1.69316,1.69315 l -45.77644,0.37799 c -0.93799,0.008 -2.56941,-1.35839 -1.69317,-1.69316 l 45.54613,-17.40139 c 0.87624,-0.33478 1.6261,-2.62879 1.69317,-1.69317 z"
       id="rect815-6-7-6"
       inkscape:connector-curvature="0"
       sodipodi:nodetypes="sssssssss" />
    <rect
       style="fill:#d40000;fill-opacity:1;stroke:#690000;stroke-width:4.80000019;stroke-miterlimit:4;stroke-dasharray:none;stroke-opacity:1"
       id="rect815-6-9-6"
       width="15.711884"
       height="17.196932"
       x="-767.46082"
       y="481.68448"
       ry="1.693164" />
    <rect
       style="fill:#d40000;fill-opacity:1;stroke:#690000;stroke-width:4.80000019;stroke-miterlimit:4;stroke-dasharray:none;stroke-opacity:1"
       id="rect815-6-3"
       width="15.711883"
       height="17.196932"
       x="-813.29749"
       y="480.08087"
       ry="1.693164" />
    <rect
       style="fill:#d40000;fill-opacity:1;stroke:#690000;stroke-width:6.28499985;stroke-miterlimit:4;stroke-dasharray:none;stroke-opacity:1"
       id="rect815-0"
       width="99.974701"
       height="104.13245"
       x="-832.12421"
       y="379.45395"
       ry="10.252603" />
    <ellipse
       style="fill:#000000;fill-opacity:1;stroke:none;stroke-width:14.87368488;stroke-miterlimit:4;stroke-dasharray:none;stroke-opacity:1"
       id="path817-0"
       cx="-760.89929"
       cy="405.00662"
       rx="4.9444861"
       ry="8.151721" />
    <ellipse
       style="fill:#000000;fill-opacity:1;stroke:none;stroke-width:14.87368488;stroke-miterlimit:4;stroke-dasharray:none;stroke-opacity:1"
       id="path817-9-99"
       cx="-748.37952"
       cy="401.2822"
       rx="4.9444861"
       ry="8.151721" />
    <path
       style="fill:#ff00ff;fill-opacity:1;stroke:#b500c2;stroke-width:4.80000019;stroke-miterlimit:4;stroke-dasharray:none;stroke-opacity:1"
       d="m -434.96172,359.9922 -28.06333,30.91585 c -0.63044,0.69455 0.75822,1.76907 1.69318,1.69316 0,0 15.77306,12.08814 24.02044,9.58054 6.58521,-2.00222 8.04185,-6.91542 14.88252,-7.67653 5.43808,-0.60506 5.49981,4.68783 10.96134,5.02065 4.85251,0.29571 6.16342,-9.34227 11.28014,-8.28393 5.94733,1.23015 11.6186,6.17264 14.52211,1.11317 13.68388,-32.1589 -34.7776,-48.35752 -49.2964,-32.36291 z"
       id="rect815-6-7-0-2-0"
       inkscape:connector-curvature="0"
       sodipodi:nodetypes="ssssssscs" />
    <path
       style="fill:#0000ff;fill-opacity:1;stroke:#1e1654;stroke-width:4.80000019;stroke-miterlimit:4;stroke-dasharray:none;stroke-opacity:1"
       d="m -448.4986,435.05132 -0.23029,3.2128 c -0.0671,0.93561 -1.69318,0.75514 -1.69318,1.69317 v 13.8106 c 0,0.938 0.86963,1.2441 1.69318,1.69315 0,0 11.768,15.38359 19.38136,18.95188 3.08046,1.44378 10.89806,-4.39978 10.89806,-4.39978 12.64242,2.19464 11.26283,-1.54738 12.65446,-8.30775 0,0 12.504,-3.42241 10.57048,-5.96777 -9.45515,-12.4471 -51.5809,-18.99313 -51.5809,-18.99313 -0.88056,-0.32322 -1.6261,-2.62879 -1.69317,-1.69317 z"
       id="rect815-6-7-4-45"
       inkscape:connector-curvature="0"
       sodipodi:nodetypes="ssssssscsss" />
    <rect
       style="fill:#f9f9f9;fill-opacity:1;stroke:#353535;stroke-width:4.80000019;stroke-miterlimit:4;stroke-dasharray:none;stroke-opacity:1"
       id="rect815-6-9-9-3"
       width="15.711884"
       height="17.196932"
       x="510.37994"
       y="481.20377"
       ry="1.693164"
       transform="scale(-1,1)" />
    <rect
       style="fill:#f9f9f9;fill-opacity:1;stroke:#353535;stroke-width:4.80000019;stroke-miterlimit:4;stroke-dasharray:none;stroke-opacity:1"
       id="rect815-6-4-9"
       width="15.711884"
       height="17.196932"
       x="464.54321"
       y="479.60013"
       ry="1.693164"
       transform="scale(-1,1)" />
    <path
       style="fill:#ffff00;stroke:none;stroke-width:0.26458332px;stroke-linecap:butt;stroke-linejoin:miter;stroke-opacity:1"
       d="m -448.35004,444.7116 c 1.30236,-6.06125 12.56173,-0.009 18.52084,1.70089 7.39283,2.1214 23.3889,3.22673 20.59969,10.39435 -2.7772,7.13678 -14.8031,-3.94925 -22.1116,-6.2366 -5.72283,-1.79108 -18.26863,0.004 -17.00893,-5.85864 z"
       id="path945-3"
       inkscape:connector-curvature="0"
       sodipodi:nodetypes="aasaa" />
    <path
       style="fill:#ff2a2a;stroke:none;stroke-width:0.2048662px;stroke-linecap:butt;stroke-linejoin:miter;stroke-opacity:1"
       d="m -448.93249,446.77649 c 2.2828,-4.28287 9.12236,2.87876 13.07169,5.54021 4.8995,3.30191 16.26952,7.81195 12.66309,12.58965 -3.5909,4.75714 -9.87642,-6.38588 -14.67811,-9.79386 -3.75986,-2.66856 -13.2647,-4.19347 -11.05667,-8.336 z"
       id="path945-1-3"
       inkscape:connector-curvature="0"
       sodipodi:nodetypes="aasaa" />
    <path
       style="fill:#00e100;fill-opacity:1;stroke:none;stroke-width:0.23953336px;stroke-linecap:butt;stroke-linejoin:miter;stroke-opacity:1"
       d="m -450.83379,443.87201 c 0.58979,-5.71685 10.69168,2.15801 15.91038,4.86204 6.4743,3.35472 20.18461,7.19747 18.42394,13.74234 -1.75307,6.5167 -12.93826,-6.42466 -19.35498,-9.92755 -5.02452,-2.74281 -15.5498,-3.14731 -14.97934,-8.67683 z"
       id="path945-1-7-5-6-5"
       inkscape:connector-curvature="0"
       sodipodi:nodetypes="aasaa" />
    <rect
       style="fill:#f9f9f9;fill-opacity:1;stroke:#363636;stroke-width:6.28499985;stroke-miterlimit:4;stroke-dasharray:none;stroke-opacity:1"
       id="rect815-7-0"
       width="99.974701"
       height="104.13245"
       x="445.71649"
       y="378.97321"
       ry="10.252604"
       transform="scale(-1,1)" />
    <ellipse
       style="fill:#000000;fill-opacity:1;stroke:none;stroke-width:14.87368488;stroke-miterlimit:4;stroke-dasharray:none;stroke-opacity:1"
       id="path817-3-1"
       cx="516.94147"
       cy="404.52588"
       rx="4.9444861"
       ry="8.151721"
       transform="scale(-1,1)" />
    <ellipse
       style="fill:#000000;fill-opacity:1;stroke:none;stroke-width:14.87368488;stroke-miterlimit:4;stroke-dasharray:none;stroke-opacity:1"
       id="path817-9-9-8"
       cx="529.46118"
       cy="400.80145"
       rx="4.9444861"
       ry="8.151721"
       transform="scale(-1,1)" />
    <path
       style="fill:#0000ff;fill-opacity:1;stroke:#1e1654;stroke-width:4.80000019;stroke-miterlimit:4;stroke-dasharray:none;stroke-opacity:1"
       d="m -540.72283,374.90555 c -12.90495,8.09911 -8.29881,19.72759 -0.37519,12.37715 9.41359,-8.73263 8.56725,3.84787 12.00215,1.45334 4.35255,-3.03423 10.0316,-5.43067 15.51548,-3.33279 10.03946,3.84065 8.47379,33.07661 18.62627,26.15827 3.26123,0.56612 13.58834,10.28968 16.48484,8.30547 3.91991,-2.6853 18.83423,-1.90866 19.82745,-8.86162 1.11792,-7.82602 -4.54988,-21.72615 -4.00304,-24.38256 0,0 7.21233,-7.76912 5.27881,-10.31449 -5.60448,-6.55867 -70.48701,-10.40065 -83.35677,-1.40277 z"
       id="rect815-6-7-4-4-7"
       inkscape:connector-curvature="0"
       sodipodi:nodetypes="cssscssccc" />
    <path
       style="fill:#ffff00;stroke:none;stroke-width:0.32571921px;stroke-linecap:butt;stroke-linejoin:miter;stroke-opacity:1"
       d="m -488.33715,370.42771 c 8.74657,-2.26421 10.53211,10.46432 13.36326,16.37573 3.51218,7.33374 15.5131,21.27613 4.12385,22.91257 -11.34028,1.62939 -7.40971,-14.51977 -10.64168,-21.87494 -2.53071,-5.75935 -15.3054,-15.22337 -6.84543,-17.41336 z"
       id="path945-9-3"
       inkscape:connector-curvature="0"
       sodipodi:nodetypes="aasaa" />
    <path
       style="fill:#ff2a2a;stroke:none;stroke-width:0.32214129px;stroke-linecap:butt;stroke-linejoin:miter;stroke-opacity:1"
       d="m -497.10449,369.93862 c 9.40715,-1.2918 11.56496,10.40837 14.72951,16.01654 3.92581,6.95755 17.13998,20.64844 4.86691,21.14068 -12.22026,0.49012 -8.26519,-13.81467 -11.88868,-20.76725 -2.83734,-5.44409 -16.80673,-15.14054 -7.70774,-16.38997 z"
       id="path945-1-7-59"
       inkscape:connector-curvature="0"
       sodipodi:nodetypes="aasaa" />
    <path
       style="fill:#00e100;fill-opacity:1;stroke:none;stroke-width:0.29214072px;stroke-linecap:butt;stroke-linejoin:miter;stroke-opacity:1"
       d="m -504.77614,369.43273 c 8.43291,-1.0181 11.07887,9.66839 14.27412,14.82641 3.9639,6.39909 16.72928,19.0831 5.65655,19.32534 -11.02511,0.24121 -8.29601,-12.71366 -11.98616,-19.10318 -2.88951,-5.00317 -16.10111,-14.06384 -7.94451,-15.04857 z"
       id="path945-1-7-5-0"
       inkscape:connector-curvature="0"
       sodipodi:nodetypes="aasaa" />
    <path
       style="fill:none;fill-opacity:1;stroke:#1e1654;stroke-width:4.80000019;stroke-miterlimit:4;stroke-dasharray:none;stroke-opacity:1"
       d="m -540.72283,374.90555 c -12.90495,8.09911 -8.29881,19.72759 -0.37519,12.37715 9.41359,-8.73263 8.56725,3.84787 12.00215,1.45334 4.35255,-3.03423 10.0316,-5.43067 15.51548,-3.33279 10.03946,3.84065 8.47379,33.07661 18.62627,26.15827 3.26123,0.56612 13.58834,10.28968 16.48484,8.30547 3.91991,-2.6853 18.83423,-1.90866 19.82745,-8.86162 1.11792,-7.82602 -4.54988,-21.72615 -4.00304,-24.38256 0,0 7.21233,-7.76912 5.27881,-10.31449 -5.60448,-6.55867 -70.48701,-10.40065 -83.35677,-1.40277 z"
       id="rect815-6-7-4-4-9-6"
       inkscape:connector-curvature="0"
       sodipodi:nodetypes="cssscssccc" />
    <path
       style="fill:#803300;fill-opacity:1;stroke:#56232a;stroke-width:5.36499977;stroke-linejoin:round;stroke-miterlimit:4;stroke-dasharray:none;stroke-opacity:1"
       d="m -702.38429,408.98592 c 0,0 39.79801,15.69868 60.67015,15.50163 22.45566,-0.212 64.94652,-17.90706 64.94652,-17.90706 l 1.06908,84.45718 c 0,0 -42.21083,12.02713 -63.87744,12.02713 -21.6666,0 -63.87739,-12.02713 -63.87739,-12.02713 z"
       id="rect866"
       inkscape:connector-curvature="0"
       sodipodi:nodetypes="caccacc" />
    <path
       style="fill:#803300;fill-opacity:1;stroke:#56232a;stroke-width:5.36499977;stroke-linejoin:round;stroke-miterlimit:4;stroke-dasharray:none;stroke-opacity:1"
       d="m -701.84978,409.1195 c 22.4586,-30.85138 87.69908,-33.13406 125.08215,-3.20724 l -0.26727,1.06909 c 0,0 -14.41378,17.08103 -65.2138,17.37252 -48.13273,0.27618 -59.86835,-14.69983 -59.86835,-14.69983 z"
       id="rect866-6"
       inkscape:connector-curvature="0"
       sodipodi:nodetypes="cccscc" />
    <path
       style="fill:#ff2a2a;fill-opacity:1;stroke:#b20019;stroke-width:5.36499977;stroke-linejoin:round;stroke-miterlimit:4;stroke-dasharray:none;stroke-opacity:1"
       d="m -653.8988,356.34225 c 0,0 1.73008,1.88965 3.99743,3.73056 2.11348,1.71597 4.69379,3.38961 6.77488,3.45099 4.74109,0.13984 12.28424,-7.18155 12.28424,-7.18155 v 46.86905 c 0,0 -6.79673,6.74106 -11.15031,6.80357 -4.57054,0.0656 -11.90624,-6.80357 -11.90624,-6.80357 z"
       id="rect884"
       inkscape:connector-curvature="0"
       sodipodi:nodetypes="cssccacc" />
    <path
       style="fill:#ff2a2a;fill-opacity:1;stroke:#b20019;stroke-width:5.36499977;stroke-linejoin:round;stroke-miterlimit:4;stroke-dasharray:none;stroke-opacity:1"
       d="m -653.89881,354.64084 c 0.10345,-4.25598 8.3348,-6.55782 11.90624,-6.80357 4.74109,0.13984 11.15031,6.99256 11.15031,6.99256 v 0.18899 c 0,0 -6.79673,6.74106 -11.15031,6.80357 -4.57054,0.0656 -11.90624,-6.80357 -11.90624,-6.80357 z"
       id="rect884-7"
       inkscape:connector-curvature="0"
       sodipodi:nodetypes="ccccacc" />
    <path
       style="fill:none;stroke:#000000;stroke-width:4.46500015;stroke-linecap:butt;stroke-linejoin:miter;stroke-miterlimit:4;stroke-dasharray:none;stroke-opacity:1"
       d="M -643.50447,354.45237 V 338.19941"
       id="path902"
       inkscape:connector-curvature="0" />
    <path
       style="fill:#ff6600;stroke:#ff6600;stroke-width:3.56500006;stroke-linecap:butt;stroke-linejoin:round;stroke-miterlimit:4;stroke-dasharray:none;stroke-opacity:1"
       d="m -643.88242,342.35715 c 0,0 -11.44015,-3.98914 -11.71726,-8.88246 -0.31994,-5.64972 10.47634,-6.35504 12.2842,-11.71726 1.0191,-3.0227 -1.5119,-9.44941 -1.5119,-9.44941 0,0 9.86112,8.45468 11.52829,14.3631 1.08642,3.85028 0.91289,8.72422 -1.51191,11.90625 -1.98548,2.60551 -9.07142,3.77978 -9.07142,3.77978 z"
       id="path904"
       inkscape:connector-curvature="0"
       sodipodi:nodetypes="caacaac" />
  </g>
</svg>
